<svg height="511pt" viewBox="1 0 511.99985 511" width="511pt" xmlns="http://www.w3.org/2000/svg"><path d="m491.859375.5h-471.648437c-11.105469 0-20.1406255 9.035156-20.1406255 20.140625v371.8125c0 5.5625 4.5078125 10.070313 10.0703125 10.070313s10.070313-4.507813 10.070313-10.070313v-301.375h471.648437v401.207031h-471.648437v-18.90625c0-5.5625-4.507813-10.070312-10.070313-10.070312s-10.0703125 4.507812-10.0703125 10.070312v18.910156c0 11.105469 9.0351565 20.140626 20.1406255 20.140626h471.648437c11.105469 0 20.140625-9.035157 20.140625-20.140626v-471.648437c0-11.105469-9.035156-20.140625-20.140625-20.140625zm-471.648437 70.433594v-50.292969h471.648437v50.292969zm0 0"/><path d="m56.515625 42.734375c-2.082031-5.152344-7.953125-7.644531-13.113281-5.558594-5.15625 2.085938-7.644532 7.957031-5.558594 13.113281l.144531.355469c1.585938 3.917969 5.355469 6.296875 9.339844 6.296875 1.257813 0 2.535156-.238281 3.773437-.738281 5.15625-2.085937 7.644532-7.957031 5.558594-13.113281zm0 0"/><path d="m86.847656 42.734375c-2.082031-5.152344-7.953125-7.644531-13.113281-5.558594-5.15625 2.085938-7.644531 7.957031-5.558594 13.113281l.144531.355469c1.585938 3.917969 5.355469 6.296875 9.339844 6.296875 1.257813 0 2.535156-.238281 3.773438-.738281 5.15625-2.085937 7.644531-7.957031 5.558594-13.113281zm0 0"/><path d="m450.253906 474.53125c11.105469 0 20.140625-9.035156 20.140625-20.140625v-324.382813c0-11.105468-9.035156-20.140624-20.140625-20.140624h-386.878906c-11.109375 0-20.144531 9.035156-20.144531 20.140624v324.382813c0 11.105469 9.035156 20.140625 20.144531 20.140625zm-386.878906-344.523438h386.878906l.011719 324.382813s-.003906 0-.011719 0h-386.878906zm0 0"/><path d="m117.183594 42.734375c-2.085938-5.152344-7.957032-7.644531-13.113282-5.558594-5.15625 2.085938-7.648437 7.957031-5.5625 13.113281l.144532.355469c1.585937 3.917969 5.359375 6.296875 9.339844 6.296875 1.257812 0 2.539062-.238281 3.773437-.738281 5.15625-2.085937 7.648437-7.957031 5.5625-13.113281zm0 0"/><path d="m362.269531 42.734375c-2.085937-5.152344-7.953125-7.644531-13.113281-5.558594-5.15625 2.085938-7.644531 7.957031-5.558594 13.113281l.144532.355469c1.585937 3.917969 5.355468 6.296875 9.339843 6.296875 1.257813 0 2.535157-.238281 3.773438-.738281 5.15625-2.085937 7.644531-7.957031 5.558593-13.113281zm0 0"/><path d="m227.109375 185.996094c-5.941406-5.941406-13.839844-9.214844-22.242187-9.214844-8.402344 0-16.304688 3.273438-22.246094 9.214844l-83.679688 83.679687c-5.941406 5.9375-9.214844 13.839844-9.214844 22.242188 0 8.402343 3.273438 16.304687 9.214844 22.246093l83.679688 83.679688c5.941406 5.941406 13.84375 9.210938 22.246094 9.210938 8.402343 0 16.300781-3.269532 22.242187-9.210938 12.265625-12.265625 12.265625-32.222656 0-44.488281l-61.4375-61.4375 61.4375-61.433594c12.265625-12.265625 12.265625-32.222656 0-44.488281zm-14.242187 30.246094-68.558594 68.554687c-1.886719 1.886719-2.949219 4.449219-2.949219 7.121094s1.0625 5.234375 2.949219 7.121093l68.558594 68.558594c4.410156 4.410156 4.410156 11.589844 0 16-2.136719 2.140625-4.976563 3.316406-8 3.316406-3.023438 0-5.867188-1.175781-8.003907-3.316406l-83.679687-83.679687c-2.136719-2.136719-3.316406-4.976563-3.316406-8 0-3.023438 1.179687-5.863281 3.316406-8l83.679687-83.683594c2.136719-2.136719 4.980469-3.3125 8.003907-3.3125 3.019531 0 5.863281 1.175781 8 3.3125 4.410156 4.414063 4.410156 11.59375 0 16.007813zm0 0"/><path d="m331.089844 185.996094c-5.941406-5.945313-13.839844-9.214844-22.242188-9.214844s-16.304687 3.269531-22.246094 9.214844c-12.265624 12.265625-12.265624 32.222656 0 44.488281l61.4375 61.433594-61.4375 61.4375c-12.265624 12.265625-12.265624 32.222656 0 44.488281 5.941407 5.941406 13.84375 9.214844 22.246094 9.214844s16.300782-3.273438 22.242188-9.214844l83.679687-83.679688c5.941407-5.941406 9.214844-13.839843 9.214844-22.246093 0-8.402344-3.273437-16.300781-9.214844-22.242188zm69.4375 113.921875-83.679688 83.683593c-2.136718 2.136719-4.980468 3.3125-8 3.3125-3.023437 0-5.863281-1.175781-8-3.3125-4.414062-4.414062-4.414062-11.59375 0-16.003906l68.554688-68.554687c1.890625-1.890625 2.949218-4.453125 2.949218-7.121094 0-2.671875-1.058593-5.234375-2.949218-7.121094l-68.554688-68.558593c-4.414062-4.414063-4.414062-11.59375 0-16.003907 2.136719-2.136719 4.976563-3.316406 8-3.316406 3.019532 0 5.863282 1.179687 8 3.316406l83.679688 83.679688c2.140625 2.136719 3.316406 4.980469 3.316406 8.003906s-1.179688 5.859375-3.316406 7.996094zm0 0"/><path d="m463.34375 35.71875h-70.578125c-5.5625 0-10.070313 4.507812-10.070313 10.070312s4.507813 10.070313 10.070313 10.070313h70.578125c5.5625 0 10.074219-4.507813 10.074219-10.070313s-4.511719-10.070312-10.074219-10.070312zm0 0"/><path d="m.878906 437.148438c1.585938 3.914062 5.355469 6.289062 9.335938 6.289062 1.257812 0 2.542968-.238281 3.78125-.742188 5.15625-2.09375 7.636718-7.964843 5.542968-13.121093l-.132812-.332031c-2.09375-5.15625-7.964844-7.636719-13.121094-5.546876-5.152344 2.09375-7.636718 7.96875-5.542968 13.121094zm0 0"/></svg>